<?xml version="1.0" encoding="utf-8"?>
<!-- Generator: Adobe Illustrator 24.2.0, SVG Export Plug-In . SVG Version: 6.00 Build 0)  -->
<svg version="1.1" id="Layer_1" xmlns="http://www.w3.org/2000/svg" xmlns:xlink="http://www.w3.org/1999/xlink" x="0px" y="0px"
	 viewBox="0 0 1080 1080" style="enable-background:new 0 0 1080 1080;" xml:space="preserve">
<style type="text/css">
	.st0{fill:url(#SVGID_1_);}
	.st1{fill:url(#SVGID_2_);}
	.st2{fill:url(#SVGID_3_);}
	.st3{fill:url(#SVGID_4_);}
	.st4{fill:url(#SVGID_5_);}
	.st5{fill:url(#SVGID_6_);}
	.st6{fill:url(#SVGID_7_);}
	.st7{fill:url(#SVGID_8_);}
	.st8{fill:url(#SVGID_9_);}
	.st9{fill:url(#SVGID_10_);}
	.st10{fill:url(#SVGID_11_);}
	.st11{fill:url(#SVGID_12_);stroke:#1D1D1B;stroke-miterlimit:10;}
	.st12{fill:url(#SVGID_13_);}
	.st13{fill:url(#SVGID_14_);}
	.st14{fill:url(#SVGID_15_);}
	.st15{fill:url(#SVGID_16_);}
	.st16{display:none;fill:#3E39FF;}
	.st17{font-family:'Stencil';}
	.st18{font-size:87.4683px;}
	.st19{letter-spacing:1;}
	.st20{display:none;fill:#582CFF;}
	.st21{font-family:'Roboto-BlackItalic';}
	.st22{font-size:30.1615px;}
</style>
<radialGradient id="SVGID_1_" cx="396.5723" cy="587.1866" r="232.3768" fx="356.2651" fy="568.8639" gradientTransform="matrix(0.8616 0.5076 -0.1581 0.2684 147.7491 228.2677)" gradientUnits="userSpaceOnUse">
	<stop  offset="0" style="stop-color:#582CFF"/>
	<stop  offset="0.285" style="stop-color:#4527B6"/>
	<stop  offset="0.633" style="stop-color:#302263"/>
	<stop  offset="0.8798" style="stop-color:#221E2F"/>
	<stop  offset="1" style="stop-color:#1D1D1B"/>
	<stop  offset="1" style="stop-color:#F18F34"/>
	<stop  offset="1" style="stop-color:#1D1D1B"/>
	<stop  offset="1" style="stop-color:#E95F32"/>
</radialGradient>
<path class="st0" d="M296.47,563.59l106.13-10.67c0,0,30.32,86.58,81.05,78.11c50.72-8.47,46.82-72.46,46.82-72.46l21.14,120.27
	c0,0-7.7,40.14-7.97,40.93s-92.66,7.07-92.66,7.07l-93.21-60.02l-54.98-83.67L296.47,563.59z"/>
<linearGradient id="SVGID_2_" gradientUnits="userSpaceOnUse" x1="530.4686" y1="700.8517" x2="297.1447" y2="554.9595">
	<stop  offset="0" style="stop-color:#1D1D1B"/>
	<stop  offset="0.0811" style="stop-color:#21211F"/>
	<stop  offset="0.1695" style="stop-color:#2E2E2D"/>
	<stop  offset="0.2614" style="stop-color:#444442"/>
	<stop  offset="0.3556" style="stop-color:#626261"/>
	<stop  offset="0.4517" style="stop-color:#898988"/>
	<stop  offset="0.548" style="stop-color:#B8B8B7"/>
	<stop  offset="0.5747" style="stop-color:#C6C6C6"/>
	<stop  offset="1" style="stop-color:#FFFFFF"/>
</linearGradient>
<path class="st1" d="M295.81,563.79l50.52-5.08c0,0,75.89,162.48,244.59,138.27c168.71-24.21-130.42,37.18-130.42,37.18
	l-91.32-55.01L295.81,563.79z"/>
<radialGradient id="SVGID_3_" cx="671.2841" cy="486.3038" r="159.1423" fx="708.7494" fy="480.5314" gradientUnits="userSpaceOnUse">
	<stop  offset="0" style="stop-color:#582CFF"/>
	<stop  offset="0.149" style="stop-color:#4D29D6"/>
	<stop  offset="0.4582" style="stop-color:#392487"/>
	<stop  offset="0.713" style="stop-color:#2A204D"/>
	<stop  offset="0.9003" style="stop-color:#211E29"/>
	<stop  offset="1" style="stop-color:#1D1D1B"/>
	<stop  offset="1" style="stop-color:#F18F34"/>
	<stop  offset="1" style="stop-color:#E95F32"/>
	<stop  offset="1" style="stop-color:#1D1D1B"/>
</radialGradient>
<path class="st2" d="M793.42,468.02l-95.83,10.68c0,0-28.56-75.29-74.31-67.24s-41.39,63.92-41.39,63.92l-20.69-104.85
	c0,0,6.44-35.18,6.67-35.87c0.23-0.69,83.7-7.36,83.7-7.36l85.08,51.27l50.82,72.43L793.42,468.02z"/>
<radialGradient id="SVGID_4_" cx="544.4333" cy="515.1747" r="156.7457" gradientUnits="userSpaceOnUse">
	<stop  offset="0.4363" style="stop-color:#582CFF"/>
	<stop  offset="0.5422" style="stop-color:#572CFC"/>
	<stop  offset="0.6201" style="stop-color:#552BF3"/>
	<stop  offset="0.6892" style="stop-color:#512AE3"/>
	<stop  offset="0.753" style="stop-color:#4B29CC"/>
	<stop  offset="0.8133" style="stop-color:#4327AF"/>
	<stop  offset="0.8709" style="stop-color:#3A248B"/>
	<stop  offset="0.9265" style="stop-color:#2F2260"/>
	<stop  offset="0.979" style="stop-color:#231E30"/>
	<stop  offset="1" style="stop-color:#1D1D1B"/>
	<stop  offset="1" style="stop-color:#F18F34"/>
	<stop  offset="1" style="stop-color:#E95F32"/>
	<stop  offset="1" style="stop-color:#1D1D1B"/>
</radialGradient>
<circle class="st3" cx="544.43" cy="515.17" r="156.75"/>
<linearGradient id="SVGID_5_" gradientUnits="userSpaceOnUse" x1="558.3324" y1="339.4197" x2="812.4324" y2="489.255">
	<stop  offset="0" style="stop-color:#1D1D1B"/>
	<stop  offset="0.087" style="stop-color:#21211F"/>
	<stop  offset="0.1819" style="stop-color:#2E2E2D"/>
	<stop  offset="0.2805" style="stop-color:#444442"/>
	<stop  offset="0.3816" style="stop-color:#626261"/>
	<stop  offset="0.4847" style="stop-color:#898988"/>
	<stop  offset="0.5881" style="stop-color:#B8B8B7"/>
	<stop  offset="0.6167" style="stop-color:#C6C6C6"/>
	<stop  offset="1" style="stop-color:#FFFFFF"/>
</linearGradient>
<path class="st4" d="M793.42,468.02l-49.29,5.49c0,0-76.46-152.42-240.98-127.24s126.92-36.9,126.92-36.9l90.02,50.7L793.42,468.02z
	"/>
<g>
	<linearGradient id="SVGID_6_" gradientUnits="userSpaceOnUse" x1="633.2283" y1="321.4295" x2="675.306" y2="393.1685">
		<stop  offset="0" style="stop-color:#F6F6F6"/>
		<stop  offset="0.1183" style="stop-color:#F4F4F4"/>
		<stop  offset="0.1609" style="stop-color:#EDEDED"/>
		<stop  offset="0.1913" style="stop-color:#E2E2E1"/>
		<stop  offset="0.2159" style="stop-color:#D1D1D1"/>
		<stop  offset="0.237" style="stop-color:#BBBBBB"/>
		<stop  offset="0.2556" style="stop-color:#A0A09F"/>
		<stop  offset="0.2724" style="stop-color:#80807F"/>
		<stop  offset="0.2879" style="stop-color:#5B5B59"/>
		<stop  offset="0.3017" style="stop-color:#323230"/>
		<stop  offset="0.308" style="stop-color:#1D1D1B"/>
		<stop  offset="0.3114" style="stop-color:#323230"/>
		<stop  offset="0.319" style="stop-color:#5B5B59"/>
		<stop  offset="0.3275" style="stop-color:#80807F"/>
		<stop  offset="0.3367" style="stop-color:#A0A09F"/>
		<stop  offset="0.347" style="stop-color:#BBBBBB"/>
		<stop  offset="0.3585" style="stop-color:#D1D1D1"/>
		<stop  offset="0.372" style="stop-color:#E2E2E1"/>
		<stop  offset="0.3887" style="stop-color:#EDEDED"/>
		<stop  offset="0.4121" style="stop-color:#F4F4F4"/>
		<stop  offset="0.4772" style="stop-color:#F6F6F6"/>
		<stop  offset="0.4803" style="stop-color:#E1E1E1"/>
		<stop  offset="0.4873" style="stop-color:#B8B8B8"/>
		<stop  offset="0.4951" style="stop-color:#939392"/>
		<stop  offset="0.5036" style="stop-color:#737372"/>
		<stop  offset="0.513" style="stop-color:#585856"/>
		<stop  offset="0.5237" style="stop-color:#424240"/>
		<stop  offset="0.5361" style="stop-color:#31312F"/>
		<stop  offset="0.5515" style="stop-color:#262624"/>
		<stop  offset="0.573" style="stop-color:#1F1F1D"/>
		<stop  offset="0.6328" style="stop-color:#1D1D1B"/>
		<stop  offset="0.6674" style="stop-color:#282826"/>
		<stop  offset="0.7285" style="stop-color:#454544"/>
		<stop  offset="0.809" style="stop-color:#757574"/>
		<stop  offset="0.9045" style="stop-color:#B7B7B6"/>
		<stop  offset="1" style="stop-color:#FFFFFF"/>
	</linearGradient>
	<path class="st5" d="M749.85,422.28c-31.69-30.1-65.72-53.92-95.8-67.07c-29.67-12.97-51.8-14-62.32-2.92l-1.96-1.86
		c11.36-11.97,34.58-11.15,65.36,2.31c30.37,13.27,64.67,37.27,96.58,67.58L749.85,422.28z"/>
</g>
<g>
	
		<linearGradient id="SVGID_7_" gradientUnits="userSpaceOnUse" x1="197.457" y1="787.8783" x2="239.5347" y2="859.6172" gradientTransform="matrix(-1 0 0 -1 677.8122 1533.0171)">
		<stop  offset="0" style="stop-color:#F6F6F6"/>
		<stop  offset="0.1183" style="stop-color:#F4F4F4"/>
		<stop  offset="0.1609" style="stop-color:#EDEDED"/>
		<stop  offset="0.1913" style="stop-color:#E2E2E1"/>
		<stop  offset="0.2159" style="stop-color:#D1D1D1"/>
		<stop  offset="0.237" style="stop-color:#BBBBBB"/>
		<stop  offset="0.2556" style="stop-color:#A0A09F"/>
		<stop  offset="0.2724" style="stop-color:#80807F"/>
		<stop  offset="0.2879" style="stop-color:#5B5B59"/>
		<stop  offset="0.3017" style="stop-color:#323230"/>
		<stop  offset="0.308" style="stop-color:#1D1D1B"/>
		<stop  offset="0.3114" style="stop-color:#323230"/>
		<stop  offset="0.319" style="stop-color:#5B5B59"/>
		<stop  offset="0.3275" style="stop-color:#80807F"/>
		<stop  offset="0.3367" style="stop-color:#A0A09F"/>
		<stop  offset="0.347" style="stop-color:#BBBBBB"/>
		<stop  offset="0.3585" style="stop-color:#D1D1D1"/>
		<stop  offset="0.372" style="stop-color:#E2E2E1"/>
		<stop  offset="0.3887" style="stop-color:#EDEDED"/>
		<stop  offset="0.4121" style="stop-color:#F4F4F4"/>
		<stop  offset="0.4772" style="stop-color:#F6F6F6"/>
		<stop  offset="0.4803" style="stop-color:#E1E1E1"/>
		<stop  offset="0.4873" style="stop-color:#B8B8B8"/>
		<stop  offset="0.4951" style="stop-color:#939392"/>
		<stop  offset="0.5036" style="stop-color:#737372"/>
		<stop  offset="0.513" style="stop-color:#585856"/>
		<stop  offset="0.5237" style="stop-color:#424240"/>
		<stop  offset="0.5361" style="stop-color:#31312F"/>
		<stop  offset="0.5515" style="stop-color:#262624"/>
		<stop  offset="0.573" style="stop-color:#1F1F1D"/>
		<stop  offset="0.6328" style="stop-color:#1D1D1B"/>
		<stop  offset="0.6674" style="stop-color:#282826"/>
		<stop  offset="0.7285" style="stop-color:#454544"/>
		<stop  offset="0.809" style="stop-color:#757574"/>
		<stop  offset="0.9045" style="stop-color:#B7B7B6"/>
		<stop  offset="1" style="stop-color:#FFFFFF"/>
	</linearGradient>
	<path class="st6" d="M363.74,644.29c31.69,30.1,65.72,53.92,95.8,67.07c29.67,12.97,51.8,14,62.32,2.92l1.96,1.86
		c-11.36,11.97-34.58,11.15-65.36-2.31c-30.37-13.27-64.67-37.27-96.58-67.58L363.74,644.29z"/>
</g>
<radialGradient id="SVGID_8_" cx="422.4397" cy="539.5906" r="102.645" gradientUnits="userSpaceOnUse">
	<stop  offset="0" style="stop-color:#582CFF"/>
	<stop  offset="0.0971" style="stop-color:#562CF8"/>
	<stop  offset="0.2332" style="stop-color:#522AE6"/>
	<stop  offset="0.3924" style="stop-color:#4A28C8"/>
	<stop  offset="0.569" style="stop-color:#3F269F"/>
	<stop  offset="0.7601" style="stop-color:#312269"/>
	<stop  offset="0.9603" style="stop-color:#211E29"/>
	<stop  offset="1" style="stop-color:#1D1D1B"/>
	<stop  offset="1" style="stop-color:#F18F34"/>
	<stop  offset="1" style="stop-color:#1D1D1B"/>
	<stop  offset="1" style="stop-color:#E95F32"/>
</radialGradient>
<path class="st7" d="M292.99,484.23l95.89,50.35c0,0,21.23-6.06,40.54,11.76C429.42,546.34,342.88,467.85,292.99,484.23z"/>
<linearGradient id="SVGID_9_" gradientUnits="userSpaceOnUse" x1="292.9851" y1="491.3791" x2="366.911" y2="491.3791">
	<stop  offset="0" style="stop-color:#1D1D1B"/>
	<stop  offset="0.0811" style="stop-color:#21211F"/>
	<stop  offset="0.1695" style="stop-color:#2E2E2D"/>
	<stop  offset="0.2614" style="stop-color:#444442"/>
	<stop  offset="0.3556" style="stop-color:#626261"/>
	<stop  offset="0.4517" style="stop-color:#898988"/>
	<stop  offset="0.548" style="stop-color:#B8B8B7"/>
	<stop  offset="0.5747" style="stop-color:#C6C6C6"/>
	<stop  offset="1" style="stop-color:#FFFFFF"/>
</linearGradient>
<path class="st8" d="M292.99,484.23l23.99,12.6c0,0,22.34-6.5,49.93,4.76C366.91,501.59,317.93,471.7,292.99,484.23z"/>
<radialGradient id="SVGID_10_" cx="673.526" cy="513.2059" r="107.5487" gradientUnits="userSpaceOnUse">
	<stop  offset="0" style="stop-color:#582CFF"/>
	<stop  offset="0.1888" style="stop-color:#4E29D9"/>
	<stop  offset="0.6071" style="stop-color:#35237A"/>
	<stop  offset="1" style="stop-color:#1D1D1B"/>
	<stop  offset="1" style="stop-color:#F18F34"/>
	<stop  offset="1" style="stop-color:#E95F32"/>
	<stop  offset="1" style="stop-color:#1D1D1B"/>
</radialGradient>
<path class="st9" d="M789.05,581.7l-88.04-63.09c0,0-21.86,3.07-38.53-17.24C662.48,501.37,737.37,591.05,789.05,581.7z"/>
<linearGradient id="SVGID_11_" gradientUnits="userSpaceOnUse" x1="788.6832" y1="584.8638" x2="732.4648" y2="558.9963">
	<stop  offset="0" style="stop-color:#1D1D1B"/>
	<stop  offset="0.0811" style="stop-color:#21211F"/>
	<stop  offset="0.1695" style="stop-color:#2E2E2D"/>
	<stop  offset="0.2614" style="stop-color:#444442"/>
	<stop  offset="0.3556" style="stop-color:#626261"/>
	<stop  offset="0.4517" style="stop-color:#898988"/>
	<stop  offset="0.548" style="stop-color:#B8B8B7"/>
	<stop  offset="0.5747" style="stop-color:#C6C6C6"/>
	<stop  offset="1" style="stop-color:#FFFFFF"/>
</linearGradient>
<path class="st10" d="M789.05,582.38l-22.03-15.79c0,0-23.02,3.36-48.8-11.6C718.22,554.99,762.61,591.35,789.05,582.38z"/>
<radialGradient id="SVGID_12_" cx="543.0663" cy="515.1746" r="251.3358" gradientUnits="userSpaceOnUse">
	<stop  offset="6.677915e-03" style="stop-color:#FFFFFF"/>
	<stop  offset="0.3852" style="stop-color:#FDFDFD;stop-opacity:0.9733"/>
	<stop  offset="0.5216" style="stop-color:#F6F6F6;stop-opacity:0.9637"/>
	<stop  offset="0.6189" style="stop-color:#EBEBEA;stop-opacity:0.9569"/>
	<stop  offset="0.6975" style="stop-color:#DADADA;stop-opacity:0.9513"/>
	<stop  offset="0.7649" style="stop-color:#C4C4C4;stop-opacity:0.9466"/>
	<stop  offset="0.8245" style="stop-color:#A9A9A8;stop-opacity:0.9424"/>
	<stop  offset="0.8785" style="stop-color:#898988;stop-opacity:0.9386"/>
	<stop  offset="0.9281" style="stop-color:#646462;stop-opacity:0.9351"/>
	<stop  offset="0.9722" style="stop-color:#3B3B39;stop-opacity:0.932"/>
	<stop  offset="1" style="stop-color:#1D1D1B;stop-opacity:0.93"/>
</radialGradient>
<path class="st11" d="M668.83,506.9c-65.76-62.45-100.72-132.4-78.1-156.22c22.63-23.83,94.28,7.49,160.04,69.94
	c15.92,15.12,30.04,30.69,41.97,45.93c-22.67-116.45-125.22-204.36-248.31-204.36c-129.07,0-235.56,96.66-251.04,221.54
	c29.24-10.44,92.26,20.46,150.65,75.9c65.76,62.45,100.72,132.4,78.1,156.22c-22.63,23.83-94.28-7.49-160.04-69.94
	c-28.31-26.89-50.9-55.16-65.66-80.54c23.29,115.67,125.47,202.79,248,202.79c116.45,0,214.53-78.69,243.96-185.79
	C755.84,574.34,711.12,547.06,668.83,506.9z"/>
<linearGradient id="SVGID_13_" gradientUnits="userSpaceOnUse" x1="586.9871" y1="353.9244" x2="760.2986" y2="567.0718">
	<stop  offset="0" style="stop-color:#4557E9"/>
	<stop  offset="0.0602" style="stop-color:#3A59CD"/>
	<stop  offset="0.1615" style="stop-color:#2B5DA4"/>
	<stop  offset="0.2692" style="stop-color:#1E6081"/>
	<stop  offset="0.3825" style="stop-color:#136265"/>
	<stop  offset="0.5034" style="stop-color:#0A644F"/>
	<stop  offset="0.6352" style="stop-color:#05653F"/>
	<stop  offset="0.7863" style="stop-color:#016636"/>
	<stop  offset="1" style="stop-color:#006633"/>
</linearGradient>
<path class="st12" d="M586.26,387.66c0,0,70.99-0.07,113.33,105.1c0,0-3.03-17.83-5.12-23.1c0,0-22.61-84.1-109.99-106.07
	C584.48,363.59,582.01,374.73,586.26,387.66z"/>
<linearGradient id="SVGID_14_" gradientUnits="userSpaceOnUse" x1="532.7684" y1="671.0525" x2="344.4537" y2="545.3369">
	<stop  offset="0" style="stop-color:#4557E9"/>
	<stop  offset="0.0602" style="stop-color:#3A59CD"/>
	<stop  offset="0.1615" style="stop-color:#2B5DA4"/>
	<stop  offset="0.2692" style="stop-color:#1E6081"/>
	<stop  offset="0.3825" style="stop-color:#136265"/>
	<stop  offset="0.5034" style="stop-color:#0A644F"/>
	<stop  offset="0.6352" style="stop-color:#05653F"/>
	<stop  offset="0.7863" style="stop-color:#016636"/>
	<stop  offset="1" style="stop-color:#006633"/>
</linearGradient>
<path class="st13" d="M522.8,665.96c-0.95-0.73-1.59-1.76-1.43-3.11c0.01-0.11,0.05-0.22,0.07-0.32c-1.9-2.66-3.41-5.63-4.51-8.69
	c-0.19-0.52-0.32-1.25-0.45-2.05c-0.96-1.72-1.9-3.43-2.77-5.17c-0.44-0.1-0.81-0.26-1.11-0.48c-17.64-0.33-74.28-8.4-120.34-93.22
	c0,0,5.25,17.77,7.99,22.87c0,0,33.04,82.8,122.65,94.44c0,0,0.13-1.47,0.04-3.94C522.89,666.18,522.84,666.07,522.8,665.96z"/>
<linearGradient id="SVGID_15_" gradientUnits="userSpaceOnUse" x1="465.1995" y1="317.4046" x2="850.1064" y2="525.3785" gradientTransform="matrix(0.9583 2.219363e-03 2.219363e-03 0.9567 22.7523 2.781)">
	<stop  offset="0" style="stop-color:#1D1D1B"/>
	<stop  offset="0.0366" style="stop-color:#323230;stop-opacity:0.9634"/>
	<stop  offset="0.1301" style="stop-color:#616160;stop-opacity:0.8699"/>
	<stop  offset="0.229" style="stop-color:#8C8C8B;stop-opacity:0.771"/>
	<stop  offset="0.3314" style="stop-color:#AFAFAF;stop-opacity:0.6686"/>
	<stop  offset="0.4387" style="stop-color:#CCCCCC;stop-opacity:0.5613"/>
	<stop  offset="0.5521" style="stop-color:#E3E3E3;stop-opacity:0.4479"/>
	<stop  offset="0.6747" style="stop-color:#F3F3F3;stop-opacity:0.3253"/>
	<stop  offset="0.8129" style="stop-color:#FCFCFC;stop-opacity:0.1871"/>
	<stop  offset="1" style="stop-color:#FFFFFF;stop-opacity:0"/>
</linearGradient>
<path class="st14" d="M585.78,342.43c-30.27,43.46,75.52,157.79,30.36,154.32c-120.17-9.24-154.75-160.12-124.48-203.58
	s158.71-54.04,219.85,49.87C767.55,438.31,616.05,298.97,585.78,342.43z"/>
<linearGradient id="SVGID_16_" gradientUnits="userSpaceOnUse" x1="651.208" y1="724.3464" x2="241.4684" y2="568.4522">
	<stop  offset="0" style="stop-color:#1D1D1B"/>
	<stop  offset="0.0484" style="stop-color:#3A3A38;stop-opacity:0.9516"/>
	<stop  offset="0.1355" style="stop-color:#686866;stop-opacity:0.8645"/>
	<stop  offset="0.2283" style="stop-color:#90908F;stop-opacity:0.7717"/>
	<stop  offset="0.3254" style="stop-color:#B3B3B2;stop-opacity:0.6746"/>
	<stop  offset="0.4278" style="stop-color:#CECECE;stop-opacity:0.5722"/>
	<stop  offset="0.5375" style="stop-color:#E4E4E4;stop-opacity:0.4625"/>
	<stop  offset="0.658" style="stop-color:#F3F3F3;stop-opacity:0.342"/>
	<stop  offset="0.7974" style="stop-color:#FCFCFC;stop-opacity:0.2026"/>
	<stop  offset="1" style="stop-color:#FFFFFF;stop-opacity:0"/>
</linearGradient>
<path class="st15" d="M526.87,712.38c17.9-40.59-61.89-122.75-28.42-128.59c100.37-17.51,153.07,110.47,135.18,151.05
	c-17.9,40.59-160.47,51.61-230.34-24.54C357.25,660.13,508.98,752.97,526.87,712.38z"/>
<text transform="matrix(1 0 0 1 344.624 782.6953)" class="st16 st17 st18 st19">MySip.Ltd</text>
<text transform="matrix(1 0 0 1 390.1489 851.0391)" class="st20 st21 st22">Your Financial Adviser</text>
</svg>
